<mxfile host="app.diagrams.net" modified="2022-10-27T15:04:42.767Z" agent="5.0 (Windows NT 10.0; Win64; x64) AppleWebKit/537.36 (KHTML, like Gecko) Chrome/106.0.0.0 Safari/537.36" etag="1K609J-dn396vyH1cBLb" version="20.5.1" type="github">
  <diagram id="62V7gEBeuU1OhcVWdv_l" name="Página-1">
    <mxGraphModel dx="981" dy="526" grid="1" gridSize="10" guides="1" tooltips="1" connect="1" arrows="1" fold="1" page="1" pageScale="1" pageWidth="827" pageHeight="1169" math="0" shadow="0">
      <root>
        <mxCell id="0" />
        <mxCell id="1" parent="0" />
        <mxCell id="zLYKmufsRPHPfDRJpBBb-3" style="edgeStyle=orthogonalEdgeStyle;rounded=0;orthogonalLoop=1;jettySize=auto;html=1;entryX=0;entryY=0.5;entryDx=0;entryDy=0;" edge="1" parent="1" source="zLYKmufsRPHPfDRJpBBb-1" target="zLYKmufsRPHPfDRJpBBb-2">
          <mxGeometry relative="1" as="geometry" />
        </mxCell>
        <mxCell id="zLYKmufsRPHPfDRJpBBb-1" value="Esse é um diagrama de teste" style="rounded=0;whiteSpace=wrap;html=1;fillColor=#fff2cc;strokeColor=#d6b656;" vertex="1" parent="1">
          <mxGeometry x="280" y="160" width="120" height="40" as="geometry" />
        </mxCell>
        <mxCell id="zLYKmufsRPHPfDRJpBBb-2" value="Estou testando com Github" style="rounded=0;whiteSpace=wrap;html=1;fillColor=#e1d5e7;strokeColor=#9673a6;" vertex="1" parent="1">
          <mxGeometry x="400" y="240" width="120" height="40" as="geometry" />
        </mxCell>
      </root>
    </mxGraphModel>
  </diagram>
</mxfile>
